<svg width="44" height="44" viewBox="0 0 44 44" fill="none"
  xmlns="http://www.w3.org/2000/svg">
  <g clip-path="url(#paint0_angular_2036_2456_clip_path)" data-figma-skip-parse="true">
    <g transform="matrix(0.022 0 0 0.022 22 22)">
      <foreignObject x="-1045.45" y="-1045.45" width="2090.91" height="2090.91">
        <div xmlns="http://www.w3.org/1999/xhtml" style="background:conic-gradient(from 90deg,rgba(65, 79, 255, 1) 0deg,rgba(223, 230, 255, 1) 0.036deg,rgba(65, 79, 255, 1) 360deg);height:100%;width:100%;opacity:1"></div>
      </foreignObject>
    </g>
  </g>
  <path fill-rule="evenodd" clip-rule="evenodd" d="M22 44C34.1503 44 44 34.1503 44 22C44 9.84974 34.1503 0 22 0C9.84974 0 0 9.84974 0 22C0 34.1503 9.84974 44 22 44ZM21.9998 41.9994C33.0455 41.9994 41.9998 33.045 41.9998 21.9993C41.9998 10.9537 33.0455 1.99935 21.9998 1.99935C10.9541 1.99935 1.99984 10.9537 1.99984 21.9993C1.99984 33.045 10.9541 41.9994 21.9998 41.9994Z" data-figma-gradient-fill="{&#34;type&#34;:&#34;GRADIENT_ANGULAR&#34;,&#34;stops&#34;:[{&#34;color&#34;:{&#34;r&#34;:0.87450981140136719,&#34;g&#34;:0.90196079015731812,&#34;b&#34;:1.0,&#34;a&#34;:1.0},&#34;position&#34;:9.9999997473787516e-05},{&#34;color&#34;:{&#34;r&#34;:0.25490197539329529,&#34;g&#34;:0.30980393290519714,&#34;b&#34;:1.0,&#34;a&#34;:1.0},&#34;position&#34;:1.0}],&#34;stopsVar&#34;:[{&#34;color&#34;:{&#34;r&#34;:0.87450981140136719,&#34;g&#34;:0.90196079015731812,&#34;b&#34;:1.0,&#34;a&#34;:1.0},&#34;position&#34;:9.9999997473787516e-05},{&#34;color&#34;:{&#34;r&#34;:0.25490197539329529,&#34;g&#34;:0.30980393290519714,&#34;b&#34;:1.0,&#34;a&#34;:1.0},&#34;position&#34;:1.0}],&#34;transform&#34;:{&#34;m00&#34;:44.0,&#34;m01&#34;:4.1774072536641255e-14,&#34;m02&#34;:0.0,&#34;m10&#34;:-2.2234147303238500e-14,&#34;m11&#34;:44.0,&#34;m12&#34;:0.0},&#34;opacity&#34;:1.0,&#34;blendMode&#34;:&#34;NORMAL&#34;,&#34;visible&#34;:true}"/>
  <path fill-rule="evenodd" clip-rule="evenodd" d="M42.8344 19.0098C43.3584 18.9268 43.838 19.3808 43.9056 20.0238C43.9685 20.6215 44 21.2235 44 21.8262C44 22.4745 43.5717 23 43.0433 23C42.5149 23 42.0866 22.4745 42.0866 21.8262C42.0866 21.3239 42.0603 20.8223 42.008 20.3242C41.9404 19.6812 42.3104 19.0927 42.8344 19.0098Z" fill="#414FFF"/>
  <defs>
    <clipPath id="paint0_angular_2036_2456_clip_path">
      <path fill-rule="evenodd" clip-rule="evenodd" d="M22 44C34.1503 44 44 34.1503 44 22C44 9.84974 34.1503 0 22 0C9.84974 0 0 9.84974 0 22C0 34.1503 9.84974 44 22 44ZM21.9998 41.9994C33.0455 41.9994 41.9998 33.045 41.9998 21.9993C41.9998 10.9537 33.0455 1.99935 21.9998 1.99935C10.9541 1.99935 1.99984 10.9537 1.99984 21.9993C1.99984 33.045 10.9541 41.9994 21.9998 41.9994Z"/>
    </clipPath>
  </defs>
</svg>
