<svg viewBox="0 0 36 38" fill="none"
  xmlns="http://www.w3.org/2000/svg">
  <path fill-rule="evenodd" clip-rule="evenodd" d="M0.850925 8.93477C0.325211 9.21546 0 9.75163 0 10.3378C0 16.5064 0 24.8813 0 27.6673C0 28.2534 0.327093 28.7862 0.852791 29.067L17.2163 37.8044C17.7048 38.0652 18.2952 38.0652 18.7837 37.8044L35.1473 29.067C35.6729 28.7862 36 28.2468 36 27.6607V10.34C36 9.75385 35.6729 9.21447 35.1473 8.93378L18.7837 0.196285C18.2952 -0.0644999 17.7074 -0.0658937 17.219 0.194907C14.715 1.53196 6.70893 5.80684 0.850925 8.93477ZM2.11765 11.5745V27.3256L16.9411 35.2408V18.6101L2.11765 11.5745ZM19.0589 18.6101V35.2408L33.8824 27.3256V11.5745L19.0589 18.6101ZM32.4337 9.90155L18 2.19457L3.56631 9.90155L18 16.7521L32.4337 9.90155Z" fill="url(#paint0_linear_94_21413)"/>
  <defs>
    <linearGradient id="paint0_linear_94_21413" x1="-4.53252" y1="6.69773" x2="17.688" y2="38.2199" gradientUnits="userSpaceOnUse">
      <stop offset="0.480769" stop-color="#414FFF"/>
      <stop offset="1" stop-color="#6844EA"/>
    </linearGradient>
  </defs>
</svg>
