<svg viewBox="0 0 16 16" fill="none" xmlns="http://www.w3.org/2000/svg">
  <path
    d="M4.00008 8.66797C4.00008 7.56797 4.44675 6.56797 5.17341 5.8413L4.22675 4.89464C3.26675 5.8613 2.66675 7.19464 2.66675 8.66797C2.66675 11.388 4.70008 13.628 7.33341 13.9546V12.608C5.44675 12.288 4.00008 10.648 4.00008 8.66797ZM13.3334 8.66797C13.3334 5.7213 10.9467 3.33464 8.00008 3.33464C7.96008 3.33464 7.92008 3.3413 7.88008 3.3413L8.60675 2.61464L7.66675 1.66797L5.33341 4.0013L7.66675 6.33464L8.60675 5.39464L7.88675 4.67464C7.92675 4.67464 7.96675 4.66797 8.00008 4.66797C10.2067 4.66797 12.0001 6.4613 12.0001 8.66797C12.0001 10.648 10.5534 12.288 8.66675 12.608V13.9546C11.3001 13.628 13.3334 11.388 13.3334 8.66797Z"
    fill="currentColor" />
</svg>
