<svg viewBox="0 0 16 16" fill="none" xmlns="http://www.w3.org/2000/svg">
  <path
    d="M0.666504 13.9987L7.99984 1.33203L15.3332 13.9987H0.666504ZM2.9665 12.6654H13.0332L7.99984 3.9987L2.9665 12.6654ZM7.99984 11.9987C8.18873 11.9987 8.34706 11.9348 8.47484 11.807C8.60262 11.6793 8.6665 11.5209 8.6665 11.332C8.6665 11.1431 8.60262 10.9848 8.47484 10.857C8.34706 10.7293 8.18873 10.6654 7.99984 10.6654C7.81095 10.6654 7.65262 10.7293 7.52484 10.857C7.39706 10.9848 7.33317 11.1431 7.33317 11.332C7.33317 11.5209 7.39706 11.6793 7.52484 11.807C7.65262 11.9348 7.81095 11.9987 7.99984 11.9987ZM7.33317 9.9987H8.6665V6.66536H7.33317V9.9987Z"
    fill="currentColor" />
</svg>
