<svg width="44" height="44" viewBox="0 0 44 44" fill="none"
  xmlns="http://www.w3.org/2000/svg">
  <rect width="44" height="44" rx="22" fill="currentColor"/>
  <g clip-path="url(#clip0_2036_2338)">
    <path fill-rule="evenodd" clip-rule="evenodd" d="M11.409 15.7125C11.0842 15.8878 10.8833 16.2225 10.8833 16.5884C10.8833 20.4394 10.8833 25.6676 10.8833 27.4069C10.8833 27.7728 11.0854 28.1054 11.4101 28.2807L21.5191 33.7352C21.8209 33.898 22.1856 33.898 22.4874 33.7352L32.5964 28.2807C32.9211 28.1054 33.1232 27.7687 33.1232 27.4028V16.5898C33.1232 16.2239 32.9211 15.8872 32.5964 15.7119L22.4874 10.2573C22.1856 10.0945 21.8225 10.0936 21.5208 10.2564C19.9739 11.0911 15.0279 13.7599 11.409 15.7125ZM12.1915 17.3605V27.1936L21.3491 32.1348V21.7527L12.1915 17.3605ZM22.6574 21.7527V32.1348L31.815 27.1936V17.3605L22.6574 21.7527ZM30.9201 16.3161L22.0033 11.5048L13.0865 16.3161L22.0033 20.5928L30.9201 16.3161Z" fill="url(#paint0_linear_2036_2338)"/>
  </g>
  <defs>
    <linearGradient id="paint0_linear_2036_2338" x1="8.08322" y1="14.316" x2="22.0033" y2="33.8573" gradientUnits="userSpaceOnUse">
      <stop offset="0.480769" stop-color="#414FFF"/>
      <stop offset="1" stop-color="#6843E9"/>
    </linearGradient>
    <clipPath id="clip0_2036_2338">
      <rect width="24" height="24" fill="white" transform="translate(10 10)"/>
    </clipPath>
  </defs>
</svg>
