<svg width="16" height="16" viewBox="0 0 16 16" fill="none"
  xmlns="http://www.w3.org/2000/svg">
  <path d="M11.3334 14.6654C10.7778 14.6654 10.3056 14.4709 9.91671 14.082C9.52782 13.6931 9.33337 13.2209 9.33337 12.6654C9.33337 12.5987 9.35004 12.4431 9.38337 12.1987L4.70004 9.46536C4.52226 9.63203 4.31671 9.76259 4.08337 9.85703C3.85004 9.95148 3.60004 9.9987 3.33337 9.9987C2.77782 9.9987 2.3056 9.80425 1.91671 9.41536C1.52782 9.02648 1.33337 8.55425 1.33337 7.9987C1.33337 7.44314 1.52782 6.97092 1.91671 6.58203C2.3056 6.19314 2.77782 5.9987 3.33337 5.9987C3.60004 5.9987 3.85004 6.04592 4.08337 6.14036C4.31671 6.23481 4.52226 6.36536 4.70004 6.53203L9.38337 3.7987C9.36115 3.72092 9.34726 3.64592 9.34171 3.5737C9.33615 3.50148 9.33337 3.42092 9.33337 3.33203C9.33337 2.77648 9.52782 2.30425 9.91671 1.91536C10.3056 1.52648 10.7778 1.33203 11.3334 1.33203C11.8889 1.33203 12.3612 1.52648 12.75 1.91536C13.1389 2.30425 13.3334 2.77648 13.3334 3.33203C13.3334 3.88759 13.1389 4.35981 12.75 4.7487C12.3612 5.13759 11.8889 5.33203 11.3334 5.33203C11.0667 5.33203 10.8167 5.28481 10.5834 5.19036C10.35 5.09592 10.1445 4.96536 9.96671 4.7987L5.28337 7.53203C5.3056 7.60981 5.31949 7.68481 5.32504 7.75703C5.3306 7.82925 5.33337 7.90981 5.33337 7.9987C5.33337 8.08759 5.3306 8.16814 5.32504 8.24036C5.31949 8.31259 5.3056 8.38759 5.28337 8.46536L9.96671 11.1987C10.1445 11.032 10.35 10.9015 10.5834 10.807C10.8167 10.7126 11.0667 10.6654 11.3334 10.6654C11.8889 10.6654 12.3612 10.8598 12.75 11.2487C13.1389 11.6376 13.3334 12.1098 13.3334 12.6654C13.3334 13.2209 13.1389 13.6931 12.75 14.082C12.3612 14.4709 11.8889 14.6654 11.3334 14.6654ZM11.3334 13.332C11.5223 13.332 11.6806 13.2681 11.8084 13.1404C11.9362 13.0126 12 12.8543 12 12.6654C12 12.4765 11.9362 12.3181 11.8084 12.1904C11.6806 12.0626 11.5223 11.9987 11.3334 11.9987C11.1445 11.9987 10.9862 12.0626 10.8584 12.1904C10.7306 12.3181 10.6667 12.4765 10.6667 12.6654C10.6667 12.8543 10.7306 13.0126 10.8584 13.1404C10.9862 13.2681 11.1445 13.332 11.3334 13.332ZM3.33337 8.66536C3.52226 8.66536 3.6806 8.60148 3.80837 8.4737C3.93615 8.34592 4.00004 8.18759 4.00004 7.9987C4.00004 7.80981 3.93615 7.65148 3.80837 7.5237C3.6806 7.39592 3.52226 7.33203 3.33337 7.33203C3.14449 7.33203 2.98615 7.39592 2.85837 7.5237C2.7306 7.65148 2.66671 7.80981 2.66671 7.9987C2.66671 8.18759 2.7306 8.34592 2.85837 8.4737C2.98615 8.60148 3.14449 8.66536 3.33337 8.66536ZM11.3334 3.9987C11.5223 3.9987 11.6806 3.93481 11.8084 3.80703C11.9362 3.67925 12 3.52092 12 3.33203C12 3.14314 11.9362 2.98481 11.8084 2.85703C11.6806 2.72925 11.5223 2.66536 11.3334 2.66536C11.1445 2.66536 10.9862 2.72925 10.8584 2.85703C10.7306 2.98481 10.6667 3.14314 10.6667 3.33203C10.6667 3.52092 10.7306 3.67925 10.8584 3.80703C10.9862 3.93481 11.1445 3.9987 11.3334 3.9987Z" fill="currentColor"/>
</svg>
